# Blender 4.5.3 LTS
# www.blender.org
mtllib small_radar_sticky.mtl
o Plane
v -0.450000 -0.450000 0.450000
v 0.450000 -0.450000 0.450000
v -0.450000 -0.450000 -0.450000
v 0.450000 -0.450000 -0.450000
v -0.450000 -0.287613 0.450000
v -0.412425 -0.250038 0.412425
v 0.450000 -0.287613 0.450000
v 0.412425 -0.250038 0.412425
v -0.412425 -0.250038 -0.412425
v -0.450000 -0.287613 -0.450000
v 0.450000 -0.287613 -0.450000
v 0.412425 -0.250038 -0.412425
v -0.412425 -0.250038 0.000000
v 0.000000 -0.250038 0.412425
v 0.412425 -0.250038 0.000000
v 0.000000 -0.250038 -0.412425
v -0.412425 -0.250038 -0.206212
v -0.206212 -0.250038 0.412425
v 0.412425 -0.250038 0.206213
v 0.206212 -0.250038 -0.412425
v -0.412425 -0.250038 0.206213
v 0.206212 -0.250038 0.412425
v 0.412425 -0.250038 -0.206212
v -0.206212 -0.250038 -0.412425
v 0.000000 -0.250038 -0.348647
v 0.000000 -0.250038 0.348647
v -0.348647 -0.250038 0.000000
v 0.348647 -0.250038 0.000000
v 0.246531 -0.250038 0.246531
v -0.246531 -0.250038 0.246531
v -0.246531 -0.250038 -0.246531
v 0.246531 -0.250038 -0.246531
v 0.000000 0.434172 -0.077880
v 0.000000 0.184015 -0.348647
v 0.000000 0.415130 -0.181498
v 0.000000 0.360903 -0.269341
v 0.000000 0.279746 -0.328037
v 0.000000 0.184015 0.348647
v 0.000000 0.434172 0.077880
v 0.000000 0.279746 0.328036
v 0.000000 0.360903 0.269341
v 0.000000 0.415130 0.181498
v -0.077880 0.434172 -0.000000
v -0.348647 0.184015 -0.000000
v -0.181498 0.415130 -0.000000
v -0.269341 0.360903 -0.000000
v -0.328036 0.279746 -0.000000
v 0.348647 0.184015 -0.000000
v 0.077880 0.434172 -0.000000
v 0.328036 0.279746 -0.000000
v 0.269341 0.360903 -0.000000
v 0.181498 0.415130 -0.000000
v 0.246531 0.184015 0.246531
v 0.055069 0.434172 0.055069
v 0.231957 0.279746 0.231957
v 0.190453 0.360903 0.190453
v 0.128338 0.415130 0.128338
v -0.055069 0.434172 0.055069
v -0.246531 0.184015 0.246531
v -0.128338 0.415130 0.128338
v -0.190453 0.360903 0.190453
v -0.231957 0.279746 0.231957
v -0.055069 0.434172 -0.055069
v -0.246531 0.184015 -0.246531
v -0.128338 0.415130 -0.128338
v -0.190453 0.360903 -0.190453
v -0.231957 0.279746 -0.231957
v 0.246531 0.184015 -0.246531
v 0.055069 0.434172 -0.055069
v 0.231957 0.279746 -0.231957
v 0.190453 0.360903 -0.190453
v 0.128338 0.415130 -0.128338
vn -0.0000 -1.0000 -0.0000
vn -0.0000 -0.0000 1.0000
vn -0.0000 -0.0000 -1.0000
vn -0.0000 1.0000 -0.0000
vn 0.3827 -0.0000 -0.9239
vn 1.0000 -0.0000 -0.0000
vn -0.7071 0.7071 -0.0000
vn -0.0000 0.7071 0.7071
vn 0.7071 0.7071 -0.0000
vn -0.0000 0.7071 -0.7071
vn -1.0000 -0.0000 -0.0000
vn -0.9239 -0.0000 0.3827
vn -0.9239 -0.0000 -0.3827
vn 0.9239 -0.0000 -0.3827
vn 0.9239 -0.0000 0.3827
vn 0.3827 -0.0000 0.9239
vn -0.3827 -0.0000 0.9239
vn -0.0747 0.9808 0.1802
vn -0.2126 0.8315 0.5133
vn -0.3182 0.5556 0.7682
vn -0.3753 0.1951 0.9061
vn -0.1802 0.9808 0.0747
vn -0.5133 0.8315 0.2126
vn -0.7682 0.5556 0.3182
vn -0.9061 0.1951 0.3753
vn 0.0747 0.9808 0.1802
vn 0.2126 0.8315 0.5133
vn 0.3182 0.5556 0.7682
vn 0.3753 0.1951 0.9061
vn 0.9061 0.1951 0.3753
vn 0.7682 0.5556 0.3182
vn 0.5133 0.8315 0.2126
vn 0.1802 0.9808 0.0747
vn -0.1802 0.9808 -0.0747
vn -0.5133 0.8315 -0.2126
vn -0.7682 0.5556 -0.3182
vn -0.9061 0.1951 -0.3753
vn -0.3753 0.1951 -0.9061
vn -0.3182 0.5556 -0.7682
vn -0.2126 0.8315 -0.5133
vn -0.0747 0.9808 -0.1802
vn 0.9061 0.1951 -0.3753
vn 0.7682 0.5556 -0.3182
vn 0.5133 0.8315 -0.2126
vn 0.1802 0.9808 -0.0747
vn 0.3753 0.1951 -0.9061
vn 0.3182 0.5556 -0.7682
vn 0.2126 0.8315 -0.5133
vn 0.0747 0.9808 -0.1802
vn -0.3827 -0.0000 -0.9239
vt 0.011752 0.357791
vt 0.011752 0.011752
vt 0.357791 0.011752
vt 0.357791 0.357791
vt 0.973563 0.537070
vt 0.973563 0.871380
vt 0.911275 0.872488
vt 0.911275 0.538178
vt 0.988248 0.012860
vt 0.988248 0.347170
vt 0.925960 0.346062
vt 0.925960 0.011752
vt 0.075536 0.445079
vt 0.011752 0.460581
vt 0.011752 0.381295
vt 0.091038 0.381295
vt 0.564416 0.772463
vt 0.483014 0.776613
vt 0.483014 0.610093
vt 0.564416 0.605944
vt 0.794545 0.883109
vt 0.794545 0.537070
vt 0.856763 0.537070
vt 0.856763 0.883109
vt 0.871448 0.357791
vt 0.871448 0.011752
vt 0.887050 0.026199
vt 0.887050 0.105485
vt 0.887050 0.184772
vt 0.887050 0.264058
vt 0.887050 0.343344
vt 0.895869 0.855066
vt 0.895869 0.778468
vt 0.895869 0.701869
vt 0.895869 0.625270
vt 0.895869 0.548671
vt 0.872365 0.551517
vt 0.872365 0.630803
vt 0.872365 0.710090
vt 0.872365 0.789376
vt 0.872365 0.868662
vt 0.910554 0.335569
vt 0.910554 0.258970
vt 0.910554 0.182371
vt 0.910554 0.105772
vt 0.910554 0.029173
vt 0.809229 0.357791
vt 0.809229 0.011752
vt 0.265113 0.445079
vt 0.170324 0.405817
vt 0.170324 0.381295
vt 0.249611 0.381295
vt 0.476083 0.011752
vt 0.570871 0.015028
vt 0.570871 0.181334
vt 0.476083 0.178058
vt 0.075536 0.634656
vt 0.011752 0.619154
vt 0.011752 0.539868
vt 0.036273 0.539868
vt 0.717715 0.095968
vt 0.717715 0.118886
vt 0.701509 0.135092
vt 0.678591 0.135092
vt 0.662386 0.118886
vt 0.662386 0.095968
vt 0.678591 0.079763
vt 0.701509 0.079763
vt 0.170324 0.698440
vt 0.091038 0.698440
vt 0.170324 0.673918
vt 0.011752 0.698440
vt 0.328897 0.619154
vt 0.265113 0.634656
vt 0.304375 0.539868
vt 0.328897 0.539868
vt 0.328897 0.698440
vt 0.249611 0.698440
vt 0.328897 0.460581
vt 0.328897 0.381295
vt 0.381295 0.015028
vt 0.381295 0.181334
vt 0.476083 0.274411
vt 0.570871 0.277687
vt 0.570871 0.443993
vt 0.476083 0.440717
vt 0.381295 0.277687
vt 0.381295 0.443993
vt 0.669322 0.776613
vt 0.587920 0.772463
vt 0.587920 0.605944
vt 0.669322 0.610093
vt 0.771041 0.775722
vt 0.771041 0.609203
vt 0.754522 0.080722
vt 0.754522 0.134133
vt 0.785726 0.067797
vt 0.785726 0.147058
vt 0.677211 0.540275
vt 0.755793 0.539587
vt 0.767078 0.572021
vt 0.671372 0.572858
vt 0.716756 0.042956
vt 0.729681 0.011752
vt 0.549310 0.250907
vt 0.476083 0.248376
vt 0.476083 0.215398
vt 0.565268 0.218481
vt 0.716756 0.171899
vt 0.729681 0.203103
vt 0.614325 0.537070
vt 0.594782 0.568954
vt 0.476083 0.478057
vt 0.386899 0.481140
vt 0.476083 0.511035
vt 0.402856 0.513566
vt 0.650420 0.203103
vt 0.663345 0.171899
vt 0.663345 0.042956
vt 0.650420 0.011752
vt 0.402856 0.250907
vt 0.386899 0.218481
vt 0.381295 0.609203
vt 0.385258 0.572021
vt 0.480964 0.572858
vt 0.396544 0.539587
vt 0.475125 0.540275
vt 0.594375 0.067797
vt 0.625579 0.080722
vt 0.565268 0.481140
vt 0.549310 0.513566
vt 0.594375 0.147058
vt 0.625579 0.134132
vt 0.557554 0.568954
vt 0.538011 0.537070
vt 0.381295 0.775722
s 1
usemtl None
f 1/1/1 3/2/1 4/3/1 2/4/1
f 1/5/2 2/6/2 7/7/2 5/8/2
f 4/9/3 3/10/3 10/11/3 11/12/3
f 32/13/4 23/14/4 12/15/4 20/16/4
f 32/17/5 25/18/5 34/19/5 68/20/5
f 2/21/6 4/22/6 11/23/6 7/24/6
f 10/25/7 5/26/7 6/27/7 21/28/7 13/29/7 17/30/7 9/31/7
f 5/8/8 7/7/8 8/32/8 22/33/8 14/34/8 18/35/8 6/36/8
f 7/24/9 11/23/9 12/37/9 23/38/9 15/39/9 19/40/9 8/41/9
f 11/12/10 10/11/10 9/42/10 24/43/10 16/44/10 20/45/10 12/46/10
f 3/47/11 1/48/11 5/26/11 10/25/11
f 31/49/4 25/50/4 16/51/4 24/52/4
f 27/53/12 30/54/12 59/55/12 44/56/12
f 29/57/4 19/58/4 15/59/4 28/60/4
f 58/61/4 39/62/4 54/63/4 49/64/4 69/65/4 33/66/4 63/67/4 43/68/4
f 14/69/4 22/70/4 29/57/4 26/71/4
f 22/70/4 8/72/4 19/58/4 29/57/4
f 21/73/4 30/74/4 27/75/4 13/76/4
f 6/77/4 18/78/4 30/74/4 21/73/4
f 18/78/4 14/69/4 26/71/4 30/74/4
f 17/79/4 31/49/4 24/52/4 9/80/4
f 13/76/4 27/75/4 31/49/4 17/79/4
f 31/81/13 27/53/13 44/56/13 64/82/13
f 25/50/4 32/13/4 20/16/4 16/51/4
f 28/60/4 15/59/4 23/14/4 32/13/4
f 28/83/14 32/84/14 68/85/14 48/86/14
f 29/87/15 28/83/15 48/86/15 53/88/15
f 26/89/16 29/90/16 53/91/16 38/92/16
f 30/93/17 26/89/17 38/92/17 59/94/17
f 39/62/18 58/61/18 60/95/18 42/96/18
f 42/96/19 60/95/19 61/97/19 41/98/19
f 41/99/20 61/100/20 62/101/20 40/102/20
f 40/102/21 62/101/21 59/94/21 38/92/21
f 58/61/22 43/68/22 45/103/22 60/95/22
f 60/95/23 45/103/23 46/104/23 61/97/23
f 61/105/24 46/106/24 47/107/24 62/108/24
f 62/108/25 47/107/25 44/56/25 59/55/25
f 54/63/26 39/62/26 42/96/26 57/109/26
f 57/109/27 42/96/27 41/98/27 56/110/27
f 56/111/28 41/99/28 40/102/28 55/112/28
f 55/112/29 40/102/29 38/92/29 53/91/29
f 53/88/30 48/86/30 50/113/30 55/114/30
f 55/114/31 50/113/31 51/115/31 56/116/31
f 56/110/32 51/117/32 52/118/32 57/109/32
f 57/109/33 52/118/33 49/64/33 54/63/33
f 43/68/34 63/67/34 65/119/34 45/103/34
f 45/103/35 65/119/35 66/120/35 46/104/35
f 46/106/36 66/121/36 67/122/36 47/107/36
f 47/107/37 67/122/37 64/82/37 44/56/37
f 34/19/38 64/123/38 67/124/38 37/125/38
f 37/125/39 67/124/39 66/126/39 36/127/39
f 36/128/40 66/120/40 65/119/40 35/129/40
f 35/129/41 65/119/41 63/67/41 33/66/41
f 48/86/42 68/85/42 70/130/42 50/113/42
f 50/113/43 70/130/43 71/131/43 51/115/43
f 51/117/44 71/132/44 72/133/44 52/118/44
f 52/118/45 72/133/45 69/65/45 49/64/45
f 68/20/46 34/19/46 37/125/46 70/134/46
f 70/134/47 37/125/47 36/127/47 71/135/47
f 71/132/48 36/128/48 35/129/48 72/133/48
f 72/133/49 35/129/49 33/66/49 69/65/49
f 25/18/50 31/136/50 64/123/50 34/19/50
o Cube.001
v -0.500000 -0.500000 0.500000
v -0.500000 0.500000 0.500000
v -0.500000 -0.500000 -0.500000
v -0.500000 0.500000 -0.500000
v 0.500000 -0.500000 0.500000
v 0.500000 0.500000 0.500000
v 0.500000 -0.500000 -0.500000
v 0.500000 0.500000 -0.500000
v -0.500000 -0.400000 0.400000
v -0.500000 0.400000 -0.400000
v -0.500000 0.400000 0.400000
v -0.500000 -0.400000 -0.400000
v 0.500000 -0.400000 -0.400000
v 0.500000 0.400000 0.400000
v 0.500000 0.400000 -0.400000
v 0.500000 -0.400000 0.400000
v 0.400000 -0.500000 0.400000
v -0.400000 -0.500000 -0.400000
v 0.400000 -0.500000 -0.400000
v -0.400000 -0.500000 0.400000
v -0.400000 0.500000 0.400000
v 0.400000 0.500000 -0.400000
v -0.400000 0.500000 -0.400000
v 0.400000 0.500000 0.400000
v -0.400000 -0.400000 0.400000
v 0.400000 -0.400000 0.400000
v -0.266667 -0.400000 0.400000
v 0.266667 -0.400000 -0.400000
v -0.400000 -0.400000 -0.400000
v 0.400000 -0.400000 -0.400000
v -0.266667 0.400000 -0.400000
v -0.400000 0.400000 -0.400000
v 0.400000 0.400000 -0.400000
v -0.400000 0.400000 0.400000
v 0.400000 0.400000 0.400000
v 0.266667 0.400000 0.400000
v -0.400000 -0.400000 -0.500000
v 0.400000 0.400000 -0.500000
v -0.400000 0.400000 -0.500000
v 0.400000 -0.400000 -0.500000
v 0.400000 -0.400000 0.500000
v -0.400000 0.400000 0.500000
v 0.400000 0.400000 0.500000
v -0.400000 -0.400000 0.500000
vn -1.0000 -0.0000 -0.0000
vn -0.0000 -0.0000 -1.0000
vn 1.0000 -0.0000 -0.0000
vn -0.0000 -0.0000 1.0000
vn -0.0000 -1.0000 -0.0000
vn -0.0000 1.0000 -0.0000
vt 0.600000 0.225000
vt 0.600000 0.025000
vt 0.625000 0.000000
vt 0.625000 0.250000
vt 0.375000 0.250000
vt 0.400000 0.225000
vt 0.400000 0.025000
vt 0.375000 0.000000
vt 0.600000 0.275000
vt 0.625000 0.500000
vt 0.375000 0.500000
vt 0.400000 0.475000
vt 0.600000 0.475000
vt 0.400000 0.275000
vt 0.600000 0.525000
vt 0.400000 0.525000
vt 0.625000 0.750000
vt 0.375000 0.750000
vt 0.400000 0.725000
vt 0.600000 0.725000
vt 0.625000 1.000000
vt 0.375000 1.000000
vt 0.400000 0.975000
vt 0.600000 0.975000
vt 0.600000 0.775000
vt 0.400000 0.775000
vt 0.150000 0.525000
vt 0.150000 0.725000
vt 0.125000 0.750000
vt 0.125000 0.500000
vt 0.350000 0.725000
vt 0.350000 0.525000
vt 0.850000 0.525000
vt 0.875000 0.500000
vt 0.875000 0.750000
vt 0.650000 0.725000
vt 0.850000 0.725000
vt 0.650000 0.525000
vt 0.375000 0.458333
vt 0.375000 0.479167
vt 0.625000 0.479167
vt 0.625000 0.458333
vt 0.625000 0.270833
vt 0.375000 0.270833
vt 0.375000 0.291667
vt 0.625000 0.291667
vt 0.375000 0.979167
vt 0.625000 0.979167
vt 0.625000 0.958333
vt 0.375000 0.958333
vt 0.625000 0.791667
vt 0.625000 0.770833
vt 0.375000 0.770833
vt 0.375000 0.791667
vt 0.333333 0.750000
vt 0.354167 0.750000
vt 0.354167 0.500000
vt 0.333333 0.500000
vt 0.145833 0.500000
vt 0.145833 0.750000
vt 0.166667 0.750000
vt 0.166667 0.500000
vt 0.645833 0.500000
vt 0.645833 0.750000
vt 0.666667 0.750000
vt 0.666667 0.500000
vt 0.833333 0.750000
vt 0.854167 0.750000
vt 0.854167 0.500000
vt 0.833333 0.500000
vt 0.625000 0.291667
vt 0.375000 0.291667
vt 0.416667 0.291667
vt 0.625000 0.458333
vt 0.583333 0.458333
vt 0.375000 0.791667
vt 0.416667 0.791667
vt 0.625000 0.791667
vt 0.625000 0.958333
vt 0.583333 0.958333
vt 0.583333 0.250000
vt 0.416667 0.250000
vt 0.583333 0.750000
vt 0.416667 0.750000
vt 0.166667 0.500000
vt 0.333333 0.500000
s 0
f 82/137/51 83/138/51 74/139/51 76/140/51 75/141/51 84/142/51
f 81/143/51 84/142/51 75/141/51 73/144/51 74/139/51 83/138/51
f 111/145/52 76/140/52 80/146/52 79/147/52 112/148/52 110/149/52
f 112/148/52 79/147/52 75/141/52 76/140/52 111/145/52 109/150/52
f 87/151/53 85/152/53 79/147/53 80/146/53 78/153/53 77/154/53 88/155/53 86/156/53
f 88/155/53 77/154/53 79/147/53 85/152/53
f 77/154/54 78/153/54 74/157/54 73/158/54 116/159/54 114/160/54 115/161/54 113/162/54
f 116/159/54 73/158/54 77/154/54 113/162/54
f 90/163/55 92/164/55 73/165/55 75/166/55 79/147/55 77/154/55 89/167/55 91/168/55
f 77/154/55 73/165/55 92/164/55 89/167/55
f 95/169/56 76/170/56 74/171/56 78/153/56 96/172/56 93/173/56
f 96/172/56 78/153/56 80/146/56 76/170/56 95/169/56 94/174/56
f 102/175/54 85/176/54 87/177/54 105/178/54
f 82/179/54 84/180/54 101/181/54 104/182/54
f 81/183/52 83/184/52 106/185/52 97/186/52
f 107/187/52 86/188/52 88/189/52 98/190/52
f 98/191/56 88/192/56 85/193/56 102/194/56
f 84/195/56 81/196/56 97/197/56 101/198/56
f 87/199/55 86/200/55 107/201/55 105/202/55
f 106/203/55 83/204/55 82/205/55 104/206/55
f 105/207/54 94/179/54 95/180/54 104/208/54 103/209/54
f 101/175/54 90/176/54 91/177/54 102/210/54 100/211/54
f 92/189/52 97/212/52 99/213/52 98/214/52 89/188/52
f 93/183/52 96/184/52 107/215/52 108/216/52 106/186/52
f 104/166/53 95/166/53 93/165/53 106/165/53
f 97/165/53 92/165/53 90/166/53 101/166/53
f 91/146/51 89/153/51 98/153/51 102/146/51
f 96/153/51 94/146/51 105/146/51 107/153/51
f 108/217/55 107/140/55 115/140/55 114/147/55 106/147/55
f 103/218/55 104/147/55 111/147/55 110/140/55 105/140/55
f 109/158/56 101/158/56 100/219/56 102/153/56 112/153/56
f 113/153/56 98/153/56 99/220/56 97/158/56 116/158/56
f 106/221/53 114/195/53 116/195/53 97/221/53
f 101/222/53 109/193/53 111/193/53 104/222/53
f 105/202/51 110/199/51 112/199/51 102/202/51
f 98/206/51 113/205/51 115/205/51 107/206/51
